<svg height="2048" viewBox="0 0 2048 2048" width="2048" xmlns="http://www.w3.org/2000/svg" shape-rendering="geometricPrecision" text-rendering="geometricPrecision" image-rendering="optimizeQuality" fill-rule="evenodd" clip-rule="evenodd"><defs><style>.fil3{fill:none}.fil1{fill:#6ac1e5}.fil2{fill:#e6e6e5}.fil0{fill:#333;fill-rule:nonzero}</style></defs><g id="Layer_x0020_1"><g id="_510214920"><path class="fil0" d="M477.254 1614.22L359.129 289.37l-1.548-17.375H1690.42l-1.55 17.375L1570.617 1614l-.987 11.05-10.638 2.95-531.53 147.37h-8.5L488.88 1628.218l-10.641-2.954-.985-11.046zM392.429 304l115.59 1296.43 515.197 143.02 516.639-143.242 115.713-1296.2H392.428z" id="_510214992"/><path class="fil0" d="M1021.03 1325.03l-182.503-48.487-10.793-2.867-1.02-11.132-10.509-114.853H685.052l20.228 226.527 318.52 88.193 318.623-88.342 41.28-472.996h-358.61l-6.436-30.562 382.12-169.872 11.66-135.55H633.962l11.558 130.247h405.767l6.25 30.687-26.193 11.225-369.006 157.935 11.94 136.138h566.663l-1.472 17.313-18.037 212.129-.942 11.074-10.746 2.988-180.4 50.144-8.313.062zm-163.583-76.493l167.574 44.52 165.476-45.995 15.624-183.741H644.968l-1.284-14.626-14.23-162.248-1.006-11.484 10.693-4.578 334.23-143.049H616.364l-1.298-14.625-14.399-162.247-1.541-17.375h848.163l-1.488 17.312-13.956 162.247-.808 9.385-8.693 3.865-322.067 143.175h318.332l-1.516 17.375-43.758 501.397-.963 11.026-10.726 2.974-333.596 92.493h-8.499l-333.41-92.316-10.638-2.946-.987-11.054-22.767-254.956-1.551-17.375H845.29l1.332 14.563 10.824 118.284z" id="_510214488"/></g><path class="fil1" d="M1025.09 533.091h422.197l-1.488 17.313-13.956 162.247-.808 9.385-8.693 3.864-322.067 143.175h318.331l-1.515 17.375-43.759 501.397-.962 11.026-10.726 2.974-333.596 92.493h-8.5l-333.41-92.316-10.637-2.945-.988-11.054-22.767-254.956-1.55-17.376h195.091l1.333 14.563 10.823 118.284 167.574 44.521 165.476-45.996 15.624-183.74H644.964l-1.284-14.626-14.23-162.248-1.006-11.484 10.694-4.578 334.229-143.05H616.36l-1.298-14.625-14.398-162.247-1.542-17.375h425.967zm-632.66-229.09l115.59 1296.43 515.197 143.02 516.638-143.242 115.714-1296.2H392.429z"/><path class="fil2" d="M1412.43 565.092H633.958l11.559 130.246h405.763l6.25 30.687-26.19 11.226-369.006 157.934 11.94 136.135h566.666l-1.47 17.32-18.04 212.12-.94 11.08-10.75 2.99-180.4 50.14-8.31.06-182.506-48.48-10.793-2.87-1.019-11.13-10.509-114.86H685.049l20.228 226.53 318.523 88.19 318.62-88.34 41.28-472.995h-358.61l-6.44-30.562 382.12-169.872z"/></g><path class="fil3" d="M0 0h2048v2048H0z"/></svg>