<svg height="2048" viewBox="0 0 2048 2048" width="2048" xmlns="http://www.w3.org/2000/svg" shape-rendering="geometricPrecision" text-rendering="geometricPrecision" image-rendering="optimizeQuality" fill-rule="evenodd" clip-rule="evenodd"><defs><style>.fil3{fill:none}.fil2{fill:#e6e6e5}.fil1{fill:#f48f63}.fil0{fill:#333;fill-rule:nonzero}</style></defs><g id="Layer_x0020_1"><g id="_510215880"><path class="fil0" d="M477.276 1614.23L359.156 289.38l-1.548-17.375h1332.789l-1.55 17.375-118.248 1324.65-.987 11.05-10.638 2.95-531.515 147.354h-8.5l-530.055-147.148-10.641-2.956-.985-11.044zM392.456 304l115.585 1296.43 515.168 143.015 516.624-143.226 115.71-1296.22H392.453z" id="_510216576"/><path class="fil0" d="M1023.44 1034.18h217.512l-1.555 17.375-18.86 210.738-1 11.16-10.75 2.902-169.346 45.71v.042l-11.876 3.173-.155.042h-8.248l-180.963-48.864-10.754-2.904-.997-11.158-10.264-114.966H685.065l20.23 226.707 317.91 88.26 318.446-88.265 1.46-16.398 38.19-427.784v-.063l2.38-26.19H794.416l-1.306-14.626-14.851-166.39-1.551-17.375h624.643l1.952-21.9 7.406-82.37 2.338-26.221H633.982l2.34 26.221 38.633 433.144h348.486zm.559 32H645.813l-1.305-14.625-39.937-447.769-3.89-43.597-1.55-17.375h848.765l-1.55 17.375-3.888 43.597-7.405 82.37-3.256 36.526-1.304 14.626H811.56l11.996 134.388H1418.6l-1.585 17.437-3.965 43.63h-.006l-38.182 427.72-2.445 27.449-.985 11.05-10.64 2.95-330.97 91.736-1.324.388-.747.22-8.75.063-332.846-92.408-10.64-2.953-.985-11.046-22.767-255.128-1.55-17.375h195.109l1.305 14.625 10.574 118.434 166.065 44.84 166.518-44.945 16.305-182.203h-182.092z" id="_510215136"/></g><path class="fil1" d="M1413.05 932.761zm-389.046-389.948h423.898l-1.55 17.375-3.888 43.597-7.406 82.37-3.256 36.526-1.304 14.625H811.565l11.996 134.388h595.044l-1.584 17.438-3.971 43.629-38.183 427.721-2.445 27.449-.985 11.049-10.64 2.95-330.97 91.737-1.323.388-.748.22-8.75.063-332.845-92.408-10.64-2.954-.986-11.045-22.767-255.128-1.55-17.375h195.11l1.304 14.625 10.575 118.434 166.065 44.84 166.518-44.945 16.305-182.203H645.817l-1.305-14.626-39.936-447.769-3.891-43.596-1.55-17.376h424.868zM392.459 304l115.585 1296.43 515.168 143.015 516.624-143.226 115.71-1296.22H392.456z"/><path class="fil2" d="M1413.05 574.813H633.984l2.34 26.222 38.633 433.145h565.993l-1.55 17.37-18.86 210.74-1 11.16-10.75 2.9-169.35 45.71v.05l-11.87 3.17-.16.04h-8.25l-180.959-48.86-10.754-2.91-.997-11.15-10.264-114.97H685.067l20.23 226.71 317.913 88.26 318.44-88.27 1.46-16.4 38.19-427.781v-.063l2.38-26.191H794.42l-1.307-14.625-14.851-166.39-1.551-17.375h624.639l1.96-21.9 7.4-82.37z"/></g><path class="fil3" d="M0 0h2048v2048H0z"/></svg>